HIERARCHY
ROOT Hips
{
	OFFSET -0.179506 -22.333345 2.821913
	CHANNELS 6 Xposition Yposition Zposition Zrotation Yrotation Xrotation 
	JOINT LeftUpLeg
	{
		OFFSET 6.951974 -9.140623 -0.681533
		CHANNELS 3 Zrotation Yrotation Xrotation
		JOINT LeftLeg
		{
			OFFSET 3.427654 -37.519855 -0.449580
			CHANNELS 3 Zrotation Yrotation Xrotation
			JOINT LeftFoot
			{
				OFFSET -1.359570 -39.796059 -4.369333
				CHANNELS 3 Zrotation Yrotation Xrotation
				JOINT LeftToe
				{
					OFFSET 2.635814 -5.579078 11.928840
					CHANNELS 3 Zrotation Yrotation Xrotation
					End Site
					{
						OFFSET 0.000000 0.000000 0.000000
					}
				}
			}
		}
	}
	JOINT RightUpLeg
	{
		OFFSET -6.767048 -9.052170 -0.431982
		CHANNELS 3 Zrotation Yrotation Xrotation
		JOINT RightLeg
		{
			OFFSET -3.829005 -38.256897 -0.885003
			CHANNELS 3 Zrotation Yrotation Xrotation
			JOINT RightFoot
			{
				OFFSET 1.577377 -39.841461 -4.231180
				CHANNELS 3 Zrotation Yrotation Xrotation
				JOINT RightToe
				{
					OFFSET -2.537174 -4.814398 12.334795
					CHANNELS 3 Zrotation Yrotation Xrotation
					End Site
					{
						OFFSET 0.000000 0.000000 0.000000
					}
				}
			}
		}
	}
	JOINT Spine
	{
		OFFSET -0.253288 10.896323 -2.669631
		CHANNELS 3 Zrotation Yrotation Xrotation
		JOINT Spine1
		{
			OFFSET 0.548704 13.518043 0.109247
			CHANNELS 3 Zrotation Yrotation Xrotation
			JOINT Spine2
			{
				OFFSET 0.145701 5.292222 2.542457
				CHANNELS 3 Zrotation Yrotation Xrotation
				JOINT Neck
				{
					OFFSET -0.277840 21.387037 -4.285703
					CHANNELS 3 Zrotation Yrotation Xrotation
					JOINT Head
					{
						OFFSET 0.515184 6.496960 5.134897
						CHANNELS 3 Zrotation Yrotation Xrotation
						End Site
						{
							OFFSET 0.000000 0.000000 0.000000
						}
					}
				}
				JOINT LeftShoulder
				{
					OFFSET 7.884473 12.174932 -3.408961
					CHANNELS 3 Zrotation Yrotation Xrotation
					JOINT LeftArm
					{
						OFFSET 9.097692 3.046888 -0.886815
						CHANNELS 3 Zrotation Yrotation Xrotation
						JOINT LeftForeArm
						{
							OFFSET 25.961220 -1.277207 -2.745643
							CHANNELS 3 Zrotation Yrotation Xrotation
							JOINT LeftHand
							{
								OFFSET 24.923361 0.898606 -0.117091
								CHANNELS 3 Zrotation Yrotation Xrotation
								End Site
								{
									OFFSET 0.000000 0.000000 0.000000
								}
							}
						}
					}
				}
				JOINT RightShoulder
				{
					OFFSET -8.175920 11.883285 -3.861528
					CHANNELS 3 Zrotation Yrotation Xrotation
					JOINT RightArm
					{
						OFFSET -9.601238 3.255117 -0.914307
						CHANNELS 3 Zrotation Yrotation Xrotation
						JOINT RightForeArm
						{
							OFFSET -25.374195 -1.332924 -2.140099
							CHANNELS 3 Zrotation Yrotation Xrotation
							JOINT RightHand
							{
								OFFSET -25.529810 0.777228 -0.555919
								CHANNELS 3 Zrotation Yrotation Xrotation
								End Site
								{
									OFFSET 0.000000 0.000000 0.000000
								}
							}
						}
					}
				}
			}
		}
	}
}
MOTION
Frames: 16
Frame Time: 0.033333
-30.615225 117.822334 89.171135 -131.574648 0.936894 87.308594 13.459877 7.425297 -1.266906 -2.776452 6.892197 22.586587 1.279801 11.864914 -26.640294 nan nan nan -13.814918 -10.532595 -16.863579 1.783814 -15.188112 20.175580 5.945516 -3.902038 -5.950173 nan nan nan -5.608569 1.475941 0.592751 6.746232 -3.623241 10.360038 1.375186 0.843584 -3.374878 4.685196 -11.683658 16.776190 5.416593 -16.091614 9.356055 -11.072040 -9.085228 0.783335 -73.494789 -37.976988 32.989689 148.186714 -68.207710 -112.266785 -1.286678 -20.219860 -0.554582 13.958491 8.585916 -2.154241 41.526710 21.767624 -3.161968 -103.274085 50.221791 -85.838239 1.021470 12.305576 -12.674656 
-30.591177 117.812965 89.180679 -131.511534 0.915863 87.328126 13.420575 7.415369 -1.362186 -2.762997 6.877894 22.657981 1.306360 11.877061 -26.671641 nan nan nan -13.844713 -10.594537 -16.912772 1.746714 -15.240004 20.290077 5.923396 -3.862725 -5.973484 nan nan nan -5.586422 1.490034 0.635609 6.728403 -3.591481 10.416500 1.320759 0.859530 -3.486473 4.737486 -11.710471 16.676742 5.397080 -16.152544 9.437630 -11.142963 -8.948563 0.719829 -73.474811 -38.162137 33.167788 148.100745 -68.407323 -112.211522 -1.355147 -20.294603 -0.288861 13.956607 8.416319 -2.203093 41.568374 21.755872 -3.061678 -103.277224 50.198987 -85.870958 1.007260 12.376127 -12.880783 
-30.587357 117.813637 89.182831 -131.516847 0.915863 87.345043 13.431861 7.418203 -1.400035 -2.771562 6.902899 22.708464 1.307699 11.857862 -26.678899 nan nan nan -13.839676 -10.603144 -16.947902 1.726508 -15.279225 20.345931 5.898033 -3.830023 -6.030171 nan nan nan -5.577123 1.492480 0.621786 6.730689 -3.586404 10.496420 1.297686 0.856049 -3.568567 4.752663 -11.665857 16.638456 5.367644 -16.134928 9.484872 -11.108313 -8.903539 0.768131 -73.494602 -38.230694 33.184999 147.943975 -68.319421 -112.192840 -1.669704 -20.410987 -0.450424 13.932781 8.349847 -2.204554 41.642878 21.830628 -3.012065 -103.245091 50.156641 -85.773426 1.185895 12.367004 -12.925832 
-30.607697 117.815727 89.181885 -131.548573 0.895584 87.301498 13.424340 7.419825 -1.325066 -2.785496 6.929131 22.713836 1.300673 11.847447 -26.701962 nan nan nan -13.869079 -10.590052 -16.905094 1.726864 -15.272038 20.359273 5.901548 -3.804352 -6.043814 nan nan nan -5.609976 1.498229 0.643921 6.730757 -3.574517 10.512468 1.301716 0.867709 -3.563956 4.754406 -11.646361 16.685091 5.389486 -16.134873 9.434222 -11.079599 -8.883475 0.786176 -73.562698 -38.230053 33.230230 147.834417 -68.290076 -112.173349 -1.712710 -20.445434 -0.601810 13.919596 8.338586 -2.186581 41.673576 21.859536 -3.014105 -103.207267 50.138224 -85.719476 1.274182 12.346475 -12.921969 
-30.631254 117.820267 89.178383 -131.552291 0.880434 87.256738 13.413523 7.421821 -1.250611 -2.810570 6.867803 22.715406 1.300621 11.888438 -26.720447 nan nan nan -13.888412 -10.561664 -16.837513 1.734773 -15.151252 20.367273 5.903031 -3.809820 -6.056953 nan nan nan -5.683125 1.492070 0.652338 6.769671 -3.592347 10.520871 1.348170 0.879958 -3.514451 4.723216 -11.695196 16.704744 5.396957 -16.102267 9.392345 -11.100437 -8.939145 0.861133 -73.404466 -38.267798 33.096736 148.194458 -68.289031 -112.346045 -1.558294 -20.187588 -0.391092 13.995415 8.413744 -2.146089 41.512350 21.913277 -3.137057 -103.184479 50.158923 -85.724893 1.377752 12.220495 -12.786568 
-30.607061 117.830925 89.088577 -131.582951 0.585742 87.013622 13.242792 7.410402 -0.922047 -2.815536 7.248565 22.632603 1.185936 11.129158 -26.448636 nan nan nan -14.213784 -10.604131 -16.751443 1.445179 -15.334566 20.811319 5.166797 -2.992452 -6.444500 nan nan nan -6.377425 1.793137 0.635075 7.010920 -3.583311 13.242299 1.387965 0.948507 -5.890930 5.373071 -11.444165 15.907827 5.237553 -16.863903 9.408378 -10.465728 -7.337037 0.566467 -77.307240 -39.076321 36.190947 143.921718 -67.488838 -110.759230 -6.671041 -20.361787 -2.899742 13.935888 7.512567 -2.497431 41.972635 22.748707 -1.823435 -103.004293 48.958109 -86.160246 4.147266 12.080838 -11.595385 
-30.620678 117.835350 89.072853 -131.524662 0.626310 87.023757 13.291271 7.407577 -0.942737 -2.840867 7.164621 22.608270 1.129023 11.162580 -26.421905 nan nan nan -14.160538 -10.594144 -16.746273 1.437162 -15.246912 20.833250 5.101385 -3.005798 -6.450996 nan nan nan -6.315959 1.784077 0.601257 6.991969 -3.612411 13.412822 1.357494 0.962408 -6.055147 5.383724 -11.405694 15.779332 5.219130 -16.841846 9.545427 -10.446772 -7.403602 0.654694 -77.159138 -39.196953 36.142846 143.641031 -67.470688 -110.380426 -6.821925 -20.297213 -3.066237 13.968126 7.589165 -2.471172 41.937166 22.803174 -1.896673 -102.971101 48.840383 -86.232947 4.310053 12.083601 -11.504071 
-30.628944 117.836494 89.053741 -131.478524 0.624124 86.968660 13.304774 7.360281 -0.896422 -2.879431 7.137983 22.589040 1.127857 11.263287 -26.336302 nan nan nan -14.192691 -10.597752 -16.706173 1.445218 -15.251288 20.892341 5.041613 -2.968778 -6.512034 nan nan nan -6.311541 1.894324 0.277456 6.966907 -3.659262 14.159279 1.325357 0.934463 -6.267018 5.490604 -11.403590 15.600618 5.222142 -16.892934 9.451015 -10.399173 -7.741008 0.739936 -76.905963 -39.412795 35.957750 143.224014 -67.418353 -110.096738 -6.917410 -20.215666 -2.940341 13.955325 7.781686 -2.557618 41.837128 22.693580 -2.027174 -102.939706 48.684608 -86.278082 4.333483 12.102628 -11.459630 
-30.640488 117.833900 89.039230 -131.449086 0.606624 86.960230 13.298670 7.306827 -0.906430 -2.916826 7.136679 22.619155 1.127050 11.324677 -26.254603 nan nan nan -14.254777 -10.633378 -16.719083 1.486352 -15.285097 20.966274 5.009846 -2.899719 -6.504092 nan nan nan -6.322689 1.970964 0.017918 6.946861 -3.675291 14.661859 1.292849 0.928812 -6.413048 5.535562 -11.461548 15.558718 5.207644 -16.913448 9.294618 -10.338308 -7.925991 0.754173 -76.775922 -39.549526 35.885179 142.952907 -67.438686 -109.969076 -6.967549 -20.125232 -2.823171 13.963122 7.856143 -2.623832 41.771030 22.626646 -2.108899 -102.922259 48.594841 -86.284884 4.318784 12.094434 -11.353560 
-30.652893 117.835823 89.036819 -131.421894 0.639682 87.000789 13.334683 7.307636 -0.937239 -2.943493 7.084964 22.597768 1.114242 11.336224 -26.214595 nan nan nan -14.208689 -10.634777 -16.761460 1.498849 -15.282661 20.984836 5.027750 -2.984322 -6.470505 nan nan nan -6.281301 1.935463 0.186489 6.927136 -3.611050 14.285263 1.301880 0.909486 -6.323368 5.429526 -11.520894 15.622066 5.274980 -16.818200 9.282894 -10.304764 -7.853467 0.581772 -76.762838 -39.375683 35.996947 143.075801 -67.526521 -110.041155 -6.761852 -19.954371 -2.684418 13.996397 7.732965 -2.651326 41.767856 22.629839 -2.069742 -102.928320 48.728048 -86.390702 4.286166 12.098505 -11.356281 
-30.654604 117.835884 89.024452 -131.393866 0.651930 86.997722 13.357728 7.283818 -0.889351 -3.003638 6.990665 22.504035 1.161174 11.422746 -26.240969 nan nan nan -14.172333 -10.564125 -16.777596 1.464032 -15.265157 21.030638 4.971055 -3.083211 -6.517757 nan nan nan -6.311014 1.877514 -0.071248 6.916679 -3.728419 14.715745 1.286037 0.994054 -6.343285 5.498747 -11.427009 15.463929 5.303417 -16.885092 9.312229 -10.186581 -8.187550 0.446081 -76.517745 -39.244409 35.796492 142.978253 -67.317468 -109.985093 -6.781108 -19.716910 -2.506788 14.043531 7.997589 -2.846317 41.664135 22.475215 -2.095729 -102.921907 48.695445 -86.585822 4.463624 12.068079 -11.403852 
-30.671083 117.846924 89.022385 -131.357528 0.666463 86.976973 13.368675 7.270864 -0.822805 -3.026300 6.911374 22.427464 1.183384 11.482758 -26.270990 nan nan nan -14.151055 -10.516646 -16.762058 1.454128 -15.234685 21.081815 4.949085 -3.172621 -6.610736 nan nan nan -6.338815 1.825514 -0.167479 6.915398 -3.818109 14.890909 1.295352 1.063018 -6.332153 5.579701 -11.350732 15.385042 5.342600 -16.890749 9.300798 -10.130432 -8.399082 0.441136 -76.405756 -39.136264 35.570465 143.052554 -67.230413 -109.981877 -6.694571 -19.735149 -2.673459 14.045999 8.165149 -2.972355 41.660433 22.347661 -2.155996 -102.931273 48.720942 -86.641497 4.573858 12.075742 -11.427521 
-30.673071 117.861099 89.033089 -131.343588 0.673192 86.954708 13.369953 7.263066 -0.799689 -3.008233 6.927624 22.426485 1.175829 11.521406 -26.266273 nan nan nan -14.135617 -10.516409 -16.762563 1.444774 -15.232124 21.138792 4.958835 -3.184123 -6.664224 nan nan nan -6.352600 1.824184 -0.160698 6.910677 -3.840988 14.955994 1.286642 1.076316 -6.385618 5.574023 -11.300055 15.440224 5.412808 -16.855995 9.266537 -10.120424 -8.400116 0.488966 -76.357038 -39.135254 35.486623 143.234653 -67.274599 -110.138473 -6.547754 -19.698011 -2.655839 14.103321 8.179877 -2.919336 41.647833 22.388489 -2.237507 -102.948577 48.761145 -86.681741 4.500060 12.060969 -11.321894 
-30.675392 117.877739 89.040527 -131.311347 0.671754 86.962389 13.360163 7.271762 -0.824258 -2.961366 6.953323 22.430234 1.149798 11.496400 -26.238280 nan nan nan -14.170588 -10.488631 -16.780363 1.469526 -15.296439 21.195239 4.917385 -3.098915 -6.672369 nan nan nan -6.375791 1.867925 -0.189449 6.914486 -3.844342 15.063920 1.290448 1.033474 -6.505373 5.560186 -11.268614 15.490213 5.438037 -16.823691 9.293955 -10.144209 -8.459019 0.617272 -76.289063 -39.188656 35.431649 143.143614 -67.215551 -110.130768 -6.711026 -19.695074 -2.744258 14.170322 8.221419 -2.858961 41.595769 22.342785 -2.237352 -102.996367 48.657215 -86.793341 4.533384 12.093754 -11.394275 
-30.700201 117.885986 89.041107 -131.209994 0.661611 86.962723 13.338276 7.263736 -0.856155 -2.923271 6.937997 22.435089 1.112791 11.470680 -26.228487 nan nan nan -14.248608 -10.490098 -16.712116 1.524866 -15.385068 21.168361 4.885798 -3.062791 -6.649440 nan nan nan -6.406480 1.893275 -0.118898 6.930442 -3.843588 14.907616 1.335169 0.992322 -6.451422 5.525952 -11.274515 15.467999 5.426622 -16.752317 9.356525 -10.187158 -8.519899 0.756255 -76.342871 -39.244340 35.422326 142.901186 -67.186486 -109.986680 -6.890651 -19.829016 -3.101674 14.146971 8.201601 -2.807931 41.565980 22.290510 -2.274195 -103.043485 48.605299 -86.804185 4.636761 12.116017 -11.411614 
-30.730108 117.890167 89.036430 -131.136719 0.658319 86.997514 13.326978 7.253783 -0.906465 -2.903775 6.888091 22.437342 1.087422 11.440554 -26.255610 nan nan nan -14.264717 -10.501272 -16.710607 1.524745 -15.420908 21.154874 4.925132 -3.127530 -6.653039 nan nan nan -6.399551 1.836399 0.027285 6.920088 -3.844210 14.498461 1.367618 0.987136 -6.307889 5.444614 -11.269834 15.530947 5.461934 -16.645557 9.386038 -10.224984 -8.433691 0.818810 -76.428214 -39.159988 35.427495 142.936990 -67.210021 -110.010232 -6.869592 -19.931274 -3.375185 14.083614 8.132707 -2.661721 41.651384 22.354285 -2.312751 -103.107578 48.663989 -86.752150 4.691128 12.154923 -11.417217 
